<svg id="Слой_1" data-name="Слой 1" xmlns="http://www.w3.org/2000/svg" width="174" height="55" viewBox="0 0 174 55"><defs><style>.cls-1{fill:#ffc73c;}.cls-2{fill:#231f20;}</style></defs><title>Монтажная область 11</title><rect x="3.8" y="3" width="52.1" height="49.89"/><polygon class="cls-1" points="27.28 52.05 27.28 44.31 36.45 41.17 41.97 43.4 42.87 44.62 41.97 46.61 35.08 50.7 27.28 52.05"/><path class="cls-2" d="M27.28,52.41a.36.36,0,0,1-.23-.08.34.34,0,0,1-.13-.28V44.31a.35.35,0,0,1,.24-.34l9.18-3.14a.36.36,0,0,1,.25,0l5.51,2.23a.44.44,0,0,1,.15.12l.91,1.22a.36.36,0,0,1,0,.37l-.91,2a.36.36,0,0,1-.14.16L35.26,51l-.12.05-7.8,1.35Zm.36-7.84v7L35,50.36l6.73-4,.78-1.7-.72-1-5.3-2.14Z"/><polygon class="cls-1" points="24.22 44.31 24.22 37.42 29.85 36.82 33.09 39.1 32.7 41.17 24.22 44.31"/><path class="cls-2" d="M24.22,44.67a.37.37,0,0,1-.21-.06.36.36,0,0,1-.15-.3V37.42a.36.36,0,0,1,.32-.36l5.63-.6a.37.37,0,0,1,.25.07L33.3,38.8a.38.38,0,0,1,.15.36l-.4,2.07a.34.34,0,0,1-.22.27l-8.49,3.15A.25.25,0,0,1,24.22,44.67Zm.36-6.93V43.8l7.8-2.9.32-1.64-3-2.07Z"/><polygon class="cls-1" points="39.26 17.62 43.08 15.37 48.29 18.42 44.18 20.64 39.26 17.62"/><path class="cls-2" d="M44.18,21A.41.41,0,0,1,44,21l-4.92-3a.37.37,0,0,1-.17-.31.35.35,0,0,1,.18-.3l3.82-2.25a.35.35,0,0,1,.37,0l5.2,3a.36.36,0,0,1,0,.63L44.35,21A.33.33,0,0,1,44.18,21ZM40,17.62l4.23,2.61,3.36-1.82-4.47-2.62Z"/><path class="cls-2" d="M72.66,8.9v1.93H70.39V8.77c0-1.93-.76-3.09-2.51-3.09s-2.52,1.16-2.52,3.09V20.12c0,1.93.8,3.1,2.52,3.1s2.51-1.17,2.51-3.1V17.33h2.27V20c0,3.25-1.53,5.39-4.84,5.39S63,23.25,63,20V8.9c0-3.25,1.54-5.4,4.82-5.4S72.66,5.65,72.66,8.9Z"/><path class="cls-2" d="M77.23,5.89V25.18H74.84V3.71H84.9V25.18H82.51V5.89Z"/><path class="cls-2" d="M95,13.22v2.15H89.75V23h6.43v2.18H87.35V3.71h8.83V5.89H89.75v7.33Z"/><path class="cls-2" d="M108,28.06V25.18H98.61V3.71H101V23h5.27V3.71h2.43V23.06h1.62v5Z"/><path class="cls-2" d="M115.63,25.18V5.89h-4V3.71H122V5.89h-4V25.18Z"/><path class="cls-2" d="M131.39,13.22v2.15h-5.24V23h6.44v2.18h-8.84V3.71h8.84V5.89h-6.44v7.33Z"/><path class="cls-2" d="M140.13,15.92l-3.59,9.26h-2.27l4.33-11.07-4-10.4H137l3.32,8.59,3.34-8.59h2.24l-4,10.4,4.29,11.07h-2.51Z"/><path class="cls-2" d="M72.54,36.25v11.1c0,3.25-1.53,5.39-4.81,5.39s-4.82-2.14-4.82-5.39V45h2.24v2.45c0,1.93.8,3.1,2.51,3.1s2.52-1.17,2.52-3.1v-5H66.44V40.35h3.74V36.12c0-1.93-.8-3.09-2.52-3.09s-2.51,1.16-2.51,3.09v1.72H62.94V36.25c0-3.25,1.5-5.4,4.79-5.4S72.54,33,72.54,36.25Z"/><path class="cls-2" d="M78.83,43.21l-1.26,2.11v7.21H75.18V31.06h2.39V41.43l5.7-10.37H85.7l-5.43,9.79,5.61,11.68H83.43Z"/><path class="cls-2" d="M97.53,36.25v1.93H95.26V36.12c0-1.93-.76-3.09-2.51-3.09s-2.51,1.16-2.51,3.09V47.47c0,1.93.79,3.1,2.51,3.1s2.51-1.17,2.51-3.1V44.68h2.27v2.67c0,3.25-1.53,5.39-4.84,5.39s-4.81-2.14-4.81-5.39V36.25c0-3.25,1.53-5.4,4.81-5.4S97.53,33,97.53,36.25Z"/><path class="cls-2" d="M102.44,33.24V52.53h-2.39V31.06h10.06V52.53h-2.39V33.24Z"/><path class="cls-2" d="M120.53,40.57v2.15h-5.24v7.63h6.44v2.18H112.9V31.06h8.83v2.18h-6.44v7.33Z"/><path class="cls-2" d="M129,31.06c3.37,0,4.81,2,4.81,5.25v2.57c0,3.41-1.59,5.19-5,5.19h-2.11v8.46h-2.39V31.06Zm-.19,10.86c1.78,0,2.64-.83,2.64-2.88V36.19c0-2-.7-2.95-2.45-2.95h-2.3v8.68Z"/><path class="cls-2" d="M139.27,52.53V33.24h-4V31.06h10.3v2.18h-4V52.53Z"/><polygon class="cls-1" points="27.58 0.36 10.97 10.16 10.97 35.99 27.58 26.18 27.58 20.06 16.01 26.9 16.01 13.24 27.58 6.41 32.4 9.21 32.4 3.09 27.58 0.36"/><path class="cls-2" d="M11,36.35a.39.39,0,0,1-.18,0,.38.38,0,0,1-.18-.32V10.16a.38.38,0,0,1,.18-.31L27.39.05a.36.36,0,0,1,.36,0l4.83,2.72a.38.38,0,0,1,.18.32V9.22a.38.38,0,0,1-.18.31.38.38,0,0,1-.36,0l-4.64-2.7L16.37,13.45V26.27l11-6.52a.37.37,0,0,1,.55.31v6.12a.35.35,0,0,1-.18.31L11.15,36.3A.31.31,0,0,1,11,36.35Zm.36-26v25L27.22,26V20.69l-11,6.52a.36.36,0,0,1-.54-.31V13.24a.37.37,0,0,1,.18-.31L27.39,6.1a.4.4,0,0,1,.37,0L32,8.59V3.3L27.58.78Z"/><polygon class="cls-1" points="27.58 20.07 33.49 23.42 33.49 29.55 27.58 26.12 27.58 20.07"/><path class="cls-2" d="M33.49,29.91a.41.41,0,0,1-.18-.05L27.4,26.43a.35.35,0,0,1-.18-.31V20.07a.33.33,0,0,1,.18-.31.34.34,0,0,1,.35,0l5.92,3.35a.35.35,0,0,1,.18.31v6.13a.33.33,0,0,1-.18.31A.27.27,0,0,1,33.49,29.91Zm-5.55-4,5.19,3v-5.3l-5.19-2.94Z"/><polygon class="cls-1" points="33.49 9.7 39.41 13.26 39.41 33.12 33.49 29.49 33.49 9.7"/><path class="cls-2" d="M39.41,33.48a.34.34,0,0,1-.19,0L33.31,29.8a.37.37,0,0,1-.18-.31V9.7a.36.36,0,0,1,.19-.31.38.38,0,0,1,.36,0L39.6,13a.36.36,0,0,1,.17.31V33.12a.38.38,0,0,1-.18.32A.39.39,0,0,1,39.41,33.48Zm-5.56-4.19,5.2,3.19v-19l-5.2-3.12Z"/><polygon class="cls-1" points="42.87 35.17 37.6 32.04 37.6 9.7 42.87 10.16 42.87 35.17"/><path class="cls-2" d="M42.87,35.53a.41.41,0,0,1-.18-.05l-5.27-3.13a.38.38,0,0,1-.18-.31V9.7a.37.37,0,0,1,.12-.26.39.39,0,0,1,.27-.1l5.27.46a.35.35,0,0,1,.33.36v25a.36.36,0,0,1-.36.36ZM38,31.83l4.55,2.7v-24L38,10.1Z"/><polygon class="cls-1" points="16.01 13.22 27.58 6.41 32.4 9.21 20.8 16.03 16.01 13.22"/><path class="cls-2" d="M20.8,16.39a.32.32,0,0,1-.19-.05l-4.78-2.81a.37.37,0,0,1,0-.63L27.39,6.1a.4.4,0,0,1,.37,0l4.82,2.8a.35.35,0,0,1,.18.31.37.37,0,0,1-.18.31L21,16.34A.31.31,0,0,1,20.8,16.39Zm-4.08-3.17,4.08,2.39,10.89-6.4L27.58,6.83Z"/><polygon class="cls-1" points="16.01 13.22 20.8 16.03 20.8 24.07 16.01 26.9 16.01 13.22"/><path class="cls-2" d="M16,27.26a.37.37,0,0,1-.18-.05.35.35,0,0,1-.18-.31V13.22a.36.36,0,0,1,.54-.32L21,15.72a.37.37,0,0,1,.18.31v8a.38.38,0,0,1-.18.31l-4.79,2.83A.41.41,0,0,1,16,27.26Zm.36-13.42V26.27l4.07-2.41V16.24Z"/><polygon class="cls-1" points="28.58 11.46 32.4 9.21 37.6 12.26 33.49 14.48 28.58 11.46"/><path class="cls-2" d="M33.49,14.84a.37.37,0,0,1-.18-.05l-4.92-3a.34.34,0,0,1-.17-.31.38.38,0,0,1,.18-.31L32.22,8.9a.33.33,0,0,1,.36,0l5.21,3a.37.37,0,0,1,0,.63L33.67,14.8A.39.39,0,0,1,33.49,14.84Zm-4.21-3.38,4.23,2.61,3.36-1.82L32.4,9.63Z"/><polygon class="cls-1" points="32.42 3.15 48.73 12.64 48.73 18.77 32.42 9.21 32.42 3.15"/><path class="cls-2" d="M48.73,19.12a.39.39,0,0,1-.18,0L32.24,9.52a.34.34,0,0,1-.18-.31V3.15a.38.38,0,0,1,.18-.31.38.38,0,0,1,.36,0l16.32,9.49a.34.34,0,0,1,.17.31v6.12a.36.36,0,0,1-.18.32A.34.34,0,0,1,48.73,19.12ZM32.78,9l15.59,9.14v-5.3L32.78,3.78Z"/><polygon class="cls-1" points="10.97 42.23 10.97 35.99 27.58 26.12 27.58 32.46 10.97 42.23"/><path class="cls-2" d="M11,42.59a.41.41,0,0,1-.18-.05.35.35,0,0,1-.18-.31V36a.34.34,0,0,1,.17-.31l16.61-9.88a.38.38,0,0,1,.37,0,.35.35,0,0,1,.18.31v6.34a.38.38,0,0,1-.18.31L11.15,42.54A.41.41,0,0,1,11,42.59Zm.36-6.39v5.4l15.89-9.35v-5.5Z"/><polygon class="cls-1" points="48.73 44.62 48.73 38.38 27.58 26.12 27.58 32.46 48.73 44.62"/><path class="cls-2" d="M48.73,45a.41.41,0,0,1-.18,0L27.4,32.77a.37.37,0,0,1-.18-.31V26.12a.36.36,0,0,1,.54-.31L48.91,38.07a.36.36,0,0,1,.18.32v6.23a.33.33,0,0,1-.18.31A.35.35,0,0,1,48.73,45ZM27.94,32.25,48.37,44V38.59L27.94,26.75Z"/><polygon class="cls-1" points="10.97 42.23 16.01 45.73 27.18 39.16 30.08 40.87 24.22 44.31 29.85 47.63 35.58 44.1 38.19 45.63 27.28 52.05 31.68 54.64 48.73 44.62 27.58 32.46 10.97 42.23"/><path class="cls-2" d="M31.68,55a.37.37,0,0,1-.18,0l-4.41-2.59a.34.34,0,0,1-.17-.31.36.36,0,0,1,.17-.31l10.39-6.11-1.9-1.11L30,47.93a.38.38,0,0,1-.37,0L24,44.63a.37.37,0,0,1-.17-.32A.37.37,0,0,1,24,44l5.34-3.13-2.19-1.29L16.19,46a.35.35,0,0,1-.39,0l-5-3.5a.34.34,0,0,1-.15-.31.33.33,0,0,1,.18-.29l16.6-9.77a.38.38,0,0,1,.37,0L48.91,44.31a.33.33,0,0,1,.18.31.37.37,0,0,1-.17.31L31.86,55A.37.37,0,0,1,31.68,55Zm-3.69-3,3.69,2.17L48,44.62,27.58,32.87,11.64,42.25l4.38,3,11-6.45a.33.33,0,0,1,.36,0l2.9,1.71a.35.35,0,0,1,.18.31.38.38,0,0,1-.18.31l-5.33,3.13,4.92,2.9,5.54-3.42a.35.35,0,0,1,.37,0l2.61,1.53a.37.37,0,0,1,0,.63Z"/><rect class="cls-2" x="27.22" y="0.36" width="0.72" height="6.05"/></svg>